/* XPM */
static char * logo64_xpm[] = {
"64 64 384 2",
"  	c None",
". 	c #545454",
"+ 	c #414141",
"@ 	c #000000",
"# 	c #070707",
"$ 	c #272727",
"% 	c #211401",
"& 	c #613B03",
"* 	c #0F0F0F",
"= 	c #351F02",
"- 	c #6F4305",
"; 	c #010100",
"> 	c #020202",
", 	c #010101",
"' 	c #1A0F01",
") 	c #4A2C03",
"! 	c #090909",
"~ 	c #8E7253",
"{ 	c #846B4E",
"] 	c #69543D",
"^ 	c #DCB181",
"/ 	c #DFB482",
"( 	c #8C7152",
"_ 	c #634F3A",
": 	c #DFB483",
"< 	c #D8AE7E",
"[ 	c #49392B",
"} 	c #515151",
"| 	c #453829",
"1 	c #DCB281",
"2 	c #D6AC7D",
"3 	c #E0B583",
"4 	c #6B563E",
"5 	c #5B5B5B",
"6 	c #030303",
"7 	c #3F3325",
"8 	c #E0B482",
"9 	c #DBB281",
"0 	c #745D44",
"a 	c #080808",
"b 	c #292118",
"c 	c #D5AB7C",
"d 	c #D7AD7E",
"e 	c #DEB382",
"f 	c #917454",
"g 	c #252525",
"h 	c #1D1711",
"i 	c #D9AF7F",
"j 	c #A38360",
"k 	c #0A0A0A",
"l 	c #070605",
"m 	c #C6A074",
"n 	c #DBB180",
"o 	c #B28F68",
"p 	c #030202",
"q 	c #060606",
"r 	c #080605",
"s 	c #C9A376",
"t 	c #DAAF7F",
"u 	c #D8AF7F",
"v 	c #BF9A70",
"w 	c #0D0D0D",
"x 	c #B08E67",
"y 	c #D9AE7E",
"z 	c #CEA679",
"A 	c #120E0B",
"B 	c #343434",
"C 	c #C5C5C5",
"D 	c #898989",
"E 	c #050505",
"F 	c #4A4A4A",
"G 	c #D3D3D3",
"H 	c #6C6C6C",
"I 	c #1D1D1D",
"J 	c #A68561",
"K 	c #666666",
"L 	c #FFFFFF",
"M 	c #F9F9F9",
"N 	c #828282",
"O 	c #D6D6D6",
"P 	c #FCFCFC",
"Q 	c #AFAFAF",
"R 	c #5A5A5A",
"S 	c #886E4F",
"T 	c #474747",
"U 	c #1E1E1E",
"V 	c #969696",
"W 	c #FDFDFD",
"X 	c #F6F6F6",
"Y 	c #FEFEFE",
"Z 	c #DBDBDB",
"` 	c #212121",
" .	c #3D3D3D",
"..	c #161616",
"+.	c #404040",
"@.	c #80674B",
"#.	c #E3B785",
"$.	c #362C20",
"%.	c #F4F4F4",
"&.	c #D9D9D9",
"*.	c #B9B9B9",
"=.	c #C3C3C3",
"-.	c #A3A3A3",
";.	c #5B4935",
">.	c #DBB080",
",.	c #4A3C2B",
"'.	c #565656",
").	c #FBFBFB",
"!.	c #AAAAAA",
"~.	c #040404",
"{.	c #5F4D38",
"].	c #E0B483",
"^.	c #D7AE7E",
"/.	c #524130",
"(.	c #131313",
"_.	c #F0F0F0",
":.	c #EBEBEB",
"<.	c #F8F8F8",
"[.	c #424242",
"}.	c #342A1F",
"|.	c #DDB382",
"1.	c #765F45",
"2.	c #171717",
"3.	c #D1D1D1",
"4.	c #FAFAFA",
"5.	c #F3F3F3",
"6.	c #858585",
"7.	c #303030",
"8.	c #242424",
"9.	c #D0D0D0",
"0.	c #F1F1F1",
"a.	c #4B4B4B",
"b.	c #3A2F22",
"c.	c #DDB281",
"d.	c #755D44",
"e.	c #181818",
"f.	c #787878",
"g.	c #D2D2D2",
"h.	c #E4E4E4",
"i.	c #959595",
"j.	c #444444",
"k.	c #1F1912",
"l.	c #D0A779",
"m.	c #9B7C5A",
"n.	c #656565",
"o.	c #F7F7F7",
"p.	c #BBBBBB",
"q.	c #686868",
"r.	c #D5D5D5",
"s.	c #101010",
"t.	c #1F1F1F",
"u.	c #201A13",
"v.	c #9E7F5C",
"w.	c #373737",
"x.	c #8D8D8D",
"y.	c #3A3A3A",
"z.	c #E7E7E7",
"A.	c #767676",
"B.	c #3B3B3B",
"C.	c #090706",
"D.	c #BD986F",
"E.	c #B9946C",
"F.	c #070505",
"G.	c #111111",
"H.	c #ACACAC",
"I.	c #919191",
"J.	c #464646",
"K.	c #0B0907",
"L.	c #C7A074",
"M.	c #C39D71",
"N.	c #848484",
"O.	c #CACACA",
"P.	c #0B0B0B",
"Q.	c #838383",
"R.	c #DEDEDE",
"S.	c #A98863",
"T.	c #D8AE7F",
"U.	c #16110D",
"V.	c #E3E3E3",
"W.	c #8B8B8B",
"X.	c #0C0C0C",
"Y.	c #3E3E3E",
"Z.	c #818181",
"`.	c #A88762",
" +	c #DCB180",
".+	c #D3AA7B",
"++	c #0B0807",
"@+	c #B0B0B0",
"#+	c #5D5D5D",
"$+	c #8C8C8C",
"%+	c #E6E6E6",
"&+	c #EDEDED",
"*+	c #292929",
"=+	c #8B7152",
"-+	c #DAB080",
";+	c #E9BB88",
">+	c #2E251B",
",+	c #313131",
"'+	c #606060",
")+	c #C6C6C6",
"!+	c #727272",
"~+	c #C9C9C9",
"{+	c #D7D7D7",
"]+	c #C7C7C7",
"^+	c #585858",
"/+	c #3C3C3C",
"(+	c #7A6348",
"_+	c #E2B684",
":+	c #3C2F23",
"<+	c #535353",
"[+	c #707070",
"}+	c #6F6F6F",
"|+	c #717171",
"1+	c #6A6A6A",
"2+	c #747474",
"3+	c #797979",
"4+	c #7D7D7D",
"5+	c #232323",
"6+	c #9B9B9B",
"7+	c #393939",
"8+	c #9D9D9D",
"9+	c #868686",
"0+	c #CCCCCC",
"a+	c #7A7A7A",
"b+	c #544331",
"c+	c #E1B583",
"d+	c #5E4A37",
"e+	c #4C4C4C",
"f+	c #4E4E4E",
"g+	c #D3D3D2",
"h+	c #F4F3F4",
"i+	c #F2F2F2",
"j+	c #BEBEBE",
"k+	c #C2C2C2",
"l+	c #B1B1B1",
"m+	c #B6B6B6",
"n+	c #4F3F2E",
"o+	c #E5B886",
"p+	c #DAB07F",
"q+	c #0E0E0E",
"r+	c #000001",
"s+	c #CACAC9",
"t+	c #F5F5F5",
"u+	c #E8E8E8",
"v+	c #454545",
"w+	c #DCDCDC",
"x+	c #AEAEAE",
"y+	c #E3B684",
"z+	c #8F7253",
"A+	c #262626",
"B+	c #E9E9E9",
"C+	c #E5E5E5",
"D+	c #595959",
"E+	c #CBCBCB",
"F+	c #5F5F5F",
"G+	c #2F2F2F",
"H+	c #A4A4A4",
"I+	c #525252",
"J+	c #6C553E",
"K+	c #E4B785",
"L+	c #7E664A",
"M+	c #353535",
"N+	c #EFEFEF",
"O+	c #65523B",
"P+	c #AE8C65",
"Q+	c #333333",
"R+	c #CFCFCF",
"S+	c #222222",
"T+	c #EAEAEA",
"U+	c #737373",
"V+	c #1B1B1B",
"W+	c #100F0E",
"X+	c #050303",
"Y+	c #CDCDCD",
"Z+	c #282828",
"`+	c #1A1A1A",
" @	c #696969",
".@	c #2A2723",
"+@	c #FFEED4",
"@@	c #585148",
"#@	c #ADADAD",
"$@	c #EEEEEE",
"%@	c #363636",
"&@	c #C2B4A0",
"*@	c #5A544B",
"=@	c #9F9F9F",
"-@	c #8A8A8A",
";@	c #A9A9A9",
">@	c #C0C0C0",
",@	c #786E62",
"'@	c #D1C1AC",
")@	c #26221F",
"!@	c #949494",
"~@	c #2B2B2B",
"{@	c #D4D4D4",
"]@	c #6B6B6B",
"^@	c #E2E2E2",
"/@	c #9E9E9E",
"(@	c #0B0A0A",
"_@	c #6A6157",
":@	c #575757",
"<@	c #C8C8C8",
"[@	c #5E5E5E",
"}@	c #505050",
"|@	c #D8D8D8",
"1@	c #494949",
"2@	c #151515",
"3@	c #B7B7B7",
"4@	c #E1E1E1",
"5@	c #646464",
"6@	c #555555",
"7@	c #323232",
"8@	c #6D6D6D",
"9@	c #2C2C2C",
"0@	c #ECECEC",
"a@	c #191919",
"b@	c #4F4F4F",
"c@	c #676767",
"d@	c #3F3F3F",
"e@	c #808080",
"f@	c #2D2D2D",
"g@	c #B4B4B4",
"h@	c #2F2E2E",
"i@	c #909090",
"j@	c #929292",
"k@	c #686869",
"l@	c #2A2B2B",
"m@	c #2B2C2C",
"n@	c #2E2E2E",
"o@	c #2F302F",
"p@	c #2F2F30",
"q@	c #3A3A3B",
"r@	c #434343",
"s@	c #4B4C4C",
"t@	c #545455",
"u@	c #616161",
"v@	c #A5A5A5",
"w@	c #777777",
"x@	c #1C1C1C",
"y@	c #7C7C7C",
"z@	c #9A9A9A",
"A@	c #989899",
"B@	c #989898",
"C@	c #999999",
"D@	c #9A999A",
"E@	c #999A99",
"F@	c #999A9A",
"G@	c #9B9B9A",
"H@	c #9C9C9B",
"I@	c #9C9C9C",
"J@	c #979797",
"K@	c #E0E0E0",
"L@	c #BFBFBF",
"M@	c #A7A7A7",
"N@	c #141414",
"O@	c #202020",
"P@	c #121212",
"Q@	c #878787",
"R@	c #DFDFDF",
"S@	c #BABABA",
"T@	c #CECECE",
"U@	c #A8A8A8",
"V@	c #C4C4C4",
"W@	c #383838",
"X@	c #C1C1C1",
"Y@	c #BDBDBD",
"Z@	c #A0A0A0",
"`@	c #888888",
" #	c #636363",
".#	c #B3B3B3",
"+#	c #7E7E7E",
"@#	c #A6A6A6",
"##	c #8E8E8E",
"$#	c #B2B2B2",
"%#	c #DADADA",
"&#	c #DDDDDD",
"*#	c #7B7B7B",
"=#	c #939393",
"-#	c #A2A2A2",
";#	c #484848",
">#	c #ABABAB",
",#	c #7F7F7F",
"'#	c #626262",
")#	c #B8B8B8",
"                                                                                                                    . +         ",
"                                                                                                                @ @ @ @ @ @     ",
"                                                                                                                # @ @ @ @ @ @   ",
"                                                                                                              $ @ @ % & @ @ @ @ ",
"                                                                                                            * @ @ @ @ = - ; @ @ ",
"                                                                                                          # @ @ > , @ @ ' ) @ @ ",
"                                                                                                        ! @ @ @ ~ { @ @ @ @ @ @ ",
"                                                                                                        @ @ @ ] ^ / ( @ @ @ @ @ ",
"                                                                                                      @ @ @ _ : < / [ @ @ @ }   ",
"                                                                                                    @ @ @ | 1 2 3 4 @ @ @ 5     ",
"                                                                                                  6 @ @ 7 8 < 9 0 @ @ @ !       ",
"                                                                                                a @ @ b c d e f @ @ @ g         ",
"                                                                                              a @ @ h 1 < i j @ @ @ @           ",
"      @ @ @ @ @ @ @ @ @ @ @ @ @ @ @ @ @ @ @ @ @ @ @ @ @ @ @ @ @ @ @ @ @ @ @ @ @ @ @         k @ @ l m < n o p @ @ @             ",
"    @ @ @ @ @ @ @ @ @ @ @ @ @ @ @ @ @ @ @ @ @ @ @ @ @ @ @ @ @ @ @ @ @ @ @ @ @ @ @         q @ @ r s t u v @ @ @ @               ",
"    @ @ @ @ @ @ @ @ @ @ @ @ @ 6 , @ @ @ w @ @ @ @ @ @ @ @ @ @ @ @ @ @ @ @ @ @ @         q @ @ @ x < y z A @ @ @                 ",
"  @ @ @ @                   B C D E @ F G H @                                         I @ @ , J e < z h @ @ @                   ",
"  @ @ @ @                 @ K L M N F O P Q >                                       R @ @ @ S i < 1 b @ @ @                     ",
"  @ @ @ @           E T U E V L L W X L Y Z ` k  ...                              +.@ @ @ @.#.2 i $.@ @ @                       ",
"  @ @ @ @           . %.&.*.X Y L Y Y Y L L G =.%.-.#                             @ @ @ ;.>.< e ,.@ @ @                         ",
"  @ @ @ @           '.).L L L L Y L L Y Y L L L L !.~.                          @ @ @ {.].^.e /.@ @ @                           ",
"  @ @ @ @           (.G L L L L W _.:.<.L L L Y %.[.@                         @ @ @ }.t ^.|.1.@ @ @                             ",
"  @ @ @ @         @ 2.3.4.).4.5.6.7.8.R 9.W ).P 0.a.@ @ @ @ @ @ @ @         ~.@ @ b.c.< >.d.@ @ @ @                             ",
"  @ @ @ @       e.f.=.P W ).<.H @ @ @ @ 8.g.%.).W h.i.j., @ @ @ @         # @ @ k.l.d / m.@ @ @ @                               ",
"  @ @ @ @       n.o.P W ).Y p.@ @ @ @ @ @ q.X W L Y Y r.s.@ @ @         t.@ @ u.d < < v.@ @ @ 6                                 ",
"  @ @ @ @       w.C L W L Y x.@ @ @ @ @ @ y.o.L L L z.A.# @ @         B.@ @ C.D.< ^ E.F.@ @ @         @                         ",
"  @ @ @ @         G.H.Y L Y I.@           J.M L Y _. .@             y.@ @ K.L.i < M.@ @ @ @         @ @                         ",
"  @ @ @ @         @ N.W L W O.P.        @ Q.L L L R.s.            w.@ @ @ S.i < T.U.@ @ @         @ @ @                         ",
"  @ @ @ @   > @ @ y.V.Y L Y L W.X.@   , Y.z.Y L L Y Z.~.        B.@ @ @ `. +^..+++@ @ 6           @ @ @                         ",
"  @ @ @ @ t.Z.J.E p.L L Y L Y <.@+K #+$+%+L L Y Y L &+*+@     @ @ @ @ =+-+^.;+>+@ @ @ ,+        @ @ @ @ @ @   @ @               ",
"  @ @ @ @ '+L )+# !+~+~+_.L L Y L L L L Y L L L {+]+H.X.X.^+/+@ @ @ (+_+d ^.:+@ @ > <+[+[+[+[+[+}+|+!+1+2+|+[+3+4+1+8.          ",
"  , 5+~.@ 6+L ).}+7+i.8+9+Y L L L L L L L L Y 0+..a ! @ N.a+@ @ @ b+e < c+d+@ @ @ y.e+e+e+e+e+e+e+e+e+e+e+f+g+h+i+i+j+*         ",
"  +.h.k+l+%.Y L P 5.L i+N ).Y Y Y L L L L L P m+>     E W.@ @ @ n+o+d p+{.@ @ @ q+@ @ @ @ @ @ @ @ @ @ @ @ r+s+t+%.i+u+g         ",
"  v+i+).Y W Y Y W Y W -.x.P %.m+%+L Y o.p.w+0.x+..    ~.@ @ @ u.y+<  +z+@ @ @ A+@ @ @ @ @ @ @ @ @ @ @ @ @ ~.0+t+%.5.B+A+        ",
"  6 $+Y Y C+[+D+E+Y 4.F+G+H+T @ + 5.L V 6 I 4+I+q     @ @ @ @ J+K+u L+@ @ @ s.@ @ @ @ @ @ @ @ @ @ @ @ @ @ ~.0+t+%.5.B+A+        ",
"  @ f+W Y A.@ @ M+_.L 3. .E @   6 x+N++.    @ @       @ @ @ @ @ O+P+, @ @ X.@ @ @ @ @ @ @ @ @ @ @ @ @ @ @ ~.0+t+5.5.B+A+        ",
"  Q+R+L Y #+@ @ S+T+L L N+U+      V+7.~.            @ @ ~.W+@ @ , X+@ @ f+@ @ @ @ @ @ @ @ @ @ @ @ @ @ @ @ ~.0+%.t+t+T+A+        ",
"  Y+L L W j+Z+`+W.).Y M :. @@                     +.@ @ .@+@@@, @ @ @ *+e.@ @ @ @ @ @ @ @ @ @ @ @ @ @ @ @ ~.0+).V k+O.g         ",
"  #@&.$@L Y %+R.4.Y h.D+%@M+ .Y.,+P.@             @ @ @ &@+@*@@ @ @ q+, @ @ @ @ @ @ @ @ @ @ @ @ @ @ @ @ @ ~.0+W U+=@-@*+        ",
"  k s. .:.L L L Y L ;@5 0+N+5.5.B+>@Q.B.#       * @ @ ,@'@)@@ @ @ 5+a @ @ @ @ @ @ @ @ @ @ @ @ @ @ @ @ @ , * R+L Q.!.!@~@        ",
"  @ @ k {@L P w+%.Y j+]@L Y Y Y Y Y 4.^@/@` @ X.@ @ (@_@@ @ @ , H } @ @ @ @ @ @ @ @ @ @ @ @ @ @ @ @ > 2.Y.:@^@).<@z.%+$         ",
"  @ @ w &.L x.j.[@^@m+}@W L L L L Y X |@Y r.1@2@@ @ > @ @ @ s.3@4.}@@ @ @ @ @ @ @ @ @ @ @ @ @ > ! I %@1@} } 4@M ).4.0./+        ",
"  @ @ @ R f.5@X H.6@7@3@L L L Y W X 3.t+L Y 8@@ @ @ @ @ @ 9@0@%.4.}@@ @ @ @ @ @ @ @ @ @ @ , ! a@8.9@7+j.b@<+4@M M M ).c@        ",
"  @ @ @ @ d@N+L L ^@&.L Y W ).%.h.>@E+L L Z ~.@ @ @ @ @ e@N+%.%.5.G+@ @ @ @ @ @ @ @ , ~.# w q+a@` f@B.j.b@I+4@M M M <.[@        ",
"  @ @ @ > g@Y L L Y Y Y P i+|@w+%.W L L L 5@@ @ @ @ A+k =.0.%.%.X }@@ @ @ @ @ @ 6 # k k P.X.* e.8.h@y.j.b@I+4@M M M :.Z+        ",
"  @ @ @ 1@X Y L L L Y P i@7@V+I  .!.Y L >@@ @ @ @ 1@  @ j@).X o.W k@~@~@l@m@9@f@n@n@o@G+p@7.,+M+q@r@s@t@u@K %+W P Y 0+G.        ",
"  @ @ @ v@L L L L Y P 9+,         q+#@L :@@ @ 2@!.w@@   x@y@6+z@z@A@B@B@C@C@C@z@z@D@E@F@G@H@6+I@6+6+6+J@6+/@I@6+8+I.M+          ",
"  @ @ G.R.L L L L Y ~+X.            g K@Y S+9@).L L@a       ~.~.~.~.~.~.~.~.~.~.~.~.~.~.6 # w 6 6 > @ @ , E ~.~.~.~.            ",
"  @ @ g &+L L L L L W.>             @ M@W L L L L 4@N@                                  (.6+x+O@@ @ @ @                         ",
"  @ @ w.5.L L L L L A.@             @ D Y L L L W B+P@                                  *+9.:.I+@ @ @ @                         ",
"  @ @ 8.0@L L L L W Q@@ @ @ @ @ @ @ @ C@N+4.P ).).R.(.N@I 6 A+V+e.8.Z+k n@x@, 6 n@G+x@7+P.7@'.! > ! 6 G.A+      E n@7@a         ",
"  @ @ (.R@L L L L P <@! @ @ @ @ @ @ ` 4@W W W Y L S@H K@T@/+h.|@U@T+V@v+:.=.~@M@&+$@^@<@W@O %.R V X@y@Y@B+|+@ U Z@:.$@g@7.      ",
"  @ @ > M@L L L L Y P `@> @ @ @ @ P.Q L L L L L W |+S+&+%.U@W T@e+<._.$+P U@-@Y Y M L h.e+t+L 5 g@Z g.$@Y r.P@S@L u+R@L V@      ",
"  @ @ @ F X L L L L L P I@7.2@e.+.3@Y Y L L L L z.A+@ !.L P L a+> X@P B+W w@3.L X@ #%.).[+5.L 5 .#^@M@+#L B+Y._.$@F @#%.##      ",
"  @ @ @ 6 $#Y L L L L L Y N+%#&#5.Y L L L L L L I@E @ *#L L ).f+@ A.P L 4.+.S@L R@U@).o.R t+L R .#i+C@:@Y u+^+t+t+&.R.. 6       ",
"  @ @ @ @ +.0@L L L L L Y Y L L Y L L L L L Y 3.`   P@3.Y 0@L #@q B i+L &#N@e+T+L L Y 8+7@%.L 5 m+4.=@D+L B+Q+:.L M y@##<+      ",
"  @ @ @ @ @ ^+%.Y L L L L L L L L L L L Y L T++ @   f+X :.2+M &+n@P.C L @#@ 6 D+=#~+L {+1@%.L 5 m+Y -#R Y u+N@=#Y W o.).p.      ",
"  @ @ @ @   @ u@K@L Y L L L L L L L L L L R+;#@     q.Q =@U l+>#j.U h.Y '+  # d@`+!+).W c@g@#@Y.$+Q n.J.3@z@X.! |+$#>@v@5       ",
"  @ @ @ @     @ G+Q %.W Y L L L L W W N+/@t.@         @ @ @ @ @ @ D+<.T+S+@ 7+$@N+4.4.R.9@@ @ @ @ @ @ @ @         @ @           ",
"    @ @ @ @ @ @ @ ~. .$+X@&#z.%+&.*.,#7., @ @ @ @ @ @ @ @ @ @ @ @ Z+'# #6 @  #O z.V.)#Y.@ @ @ @ @ @ @ @                         ",
"    @ @ @ @ @ @ @ @ @ @ 6 (.`+`+s.> @ @ @ @ @ @ @ @ @ @ @ @ @ @ @ @ @ @ @ @ @ w a@..6 @ @ @ @ @ @ @ @ @                         ",
"      @ @ @ @ @ @ @ @ @ @ @ @ @ @ @ @ @ @ @ @ @ @ @ @ @ @ @ @ @ @ @ @ @ @ @ @ @ @ @ @ @ @ @ @ @ @ @ @                           ",
"                                                                                                                                ",
"                                                                                                                                "};
