/* XPM */
static const char * logo_xpm[] = {
"32 32 235 2",
"  	c None",
". 	c #222222",
"+ 	c #0B0B0B",
"@ 	c #010101",
"# 	c #1D1100",
"$ 	c #000000",
"% 	c #131313",
"& 	c #130B00",
"* 	c #372102",
"= 	c #141414",
"- 	c #0A0806",
"; 	c #C9A275",
"> 	c #1F1913",
", 	c #020100",
"' 	c #020202",
") 	c #1A1A1A",
"! 	c #A48460",
"~ 	c #D3AA7B",
"{ 	c #272017",
"] 	c #0C0C0C",
"^ 	c #2B2B2B",
"/ 	c #010000",
"( 	c #A78661",
"_ 	c #D9AF7F",
": 	c #1B1610",
"< 	c #343434",
"[ 	c #7D6449",
"} 	c #E4B885",
"| 	c #433526",
"1 	c #040404",
"2 	c #262626",
"3 	c #6C573F",
"4 	c #DFB482",
"5 	c #4F402F",
"6 	c #2A2A2A",
"7 	c #E5E5E5",
"8 	c #C5C5C5",
"9 	c #404040",
"0 	c #696969",
"a 	c #493B2B",
"b 	c #E3B785",
"c 	c #776046",
"d 	c #313131",
"e 	c #8F8F8F",
"f 	c #979797",
"g 	c #FFFFFF",
"h 	c #AFAFAF",
"i 	c #7B7B7B",
"j 	c #393939",
"k 	c #342A1F",
"l 	c #8E7253",
"m 	c #090909",
"n 	c #272727",
"o 	c #FDFDFD",
"p 	c #FEFEFE",
"q 	c #333333",
"r 	c #050505",
"s 	c #18130E",
"t 	c #D5AB7C",
"u 	c #AB8A64",
"v 	c #5C5C5C",
"w 	c #F7F7F7",
"x 	c #7A7A7A",
"y 	c #1F1F1F",
"z 	c #5A5A5A",
"A 	c #F4F4F4",
"B 	c #717171",
"C 	c #120F0B",
"D 	c #D2A97B",
"E 	c #B7936B",
"F 	c #282828",
"G 	c #FBFBFB",
"H 	c #CECECE",
"I 	c #B3B3B3",
"J 	c #FCFCFC",
"K 	c #595959",
"L 	c #C19B71",
"M 	c #D7AE7E",
"N 	c #0D0A08",
"O 	c #030303",
"P 	c #656565",
"Q 	c #D5D5D5",
"R 	c #C3C3C3",
"S 	c #8D8D8D",
"T 	c #474747",
"U 	c #A98863",
"V 	c #D2A87A",
"W 	c #060606",
"X 	c #0A0A0A",
"Y 	c #B0B0B0",
"Z 	c #8E8E8E",
"` 	c #2D2D2D",
" .	c #676767",
"..	c #EAEAEA",
"+.	c #171717",
"@.	c #353535",
"#.	c #957857",
"$.	c #E5B986",
"%.	c #2F251C",
"&.	c #B4B4B4",
"*.	c #626262",
"=.	c #9D9D9D",
"-.	c #F5F5F5",
";.	c #A7A7A7",
">.	c #575757",
",.	c #6E6E6E",
"'.	c #E1B583",
").	c #473929",
"!.	c #6A6A6A",
"~.	c #787878",
"{.	c #777777",
"].	c #9A9A99",
"^.	c #D3D3D3",
"/.	c #878787",
"(.	c #D8D8D8",
"_.	c #919191",
":.	c #F0F0F0",
"<.	c #D7D7D7",
"[.	c #E7E7E7",
"}.	c #727272",
"|.	c #524130",
"1.	c #E6B986",
"2.	c #6D5740",
"3.	c #5E5E5D",
"4.	c #EFEFEF",
"5.	c #292929",
"6.	c #737373",
"7.	c #414141",
"8.	c #555555",
"9.	c #212121",
"0.	c #191919",
"a.	c #F3F3F3",
"b.	c #3B3B3B",
"c.	c #1E1E1E",
"d.	c #202020",
"e.	c #060404",
"f.	c #CFA779",
"g.	c #7A6247",
"h.	c #636363",
"i.	c #EDEDED",
"j.	c #363636",
"k.	c #ABABAB",
"l.	c #303030",
"m.	c #F8F8F8",
"n.	c #F6F6F6",
"o.	c #1D1D1D",
"p.	c #242424",
"q.	c #090807",
"r.	c #0D0D0C",
"s.	c #050404",
"t.	c #DEDEDE",
"u.	c #D2D2D2",
"v.	c #373737",
"w.	c #646464",
"x.	c #505050",
"y.	c #9A9A9A",
"z.	c #4F4F4F",
"A.	c #B5A795",
"B.	c #5F574E",
"C.	c #B9B9B9",
"D.	c #848484",
"E.	c #767676",
"F.	c #888888",
"G.	c #C0C0C0",
"H.	c #171413",
"I.	c #2D2A25",
"J.	c #181818",
"K.	c #959595",
"L.	c #E8E8E8",
"M.	c #3C3C3C",
"N.	c #0D0D0D",
"O.	c #7F7F7F",
"P.	c #DCDCDC",
"Q.	c #ADADAD",
"R.	c #323232",
"S.	c #464646",
"T.	c #525252",
"U.	c #070707",
"V.	c #757575",
"W.	c #6D6D6D",
"X.	c #151515",
"Y.	c #191A1A",
"Z.	c #1B1B1C",
"`.	c #4E4E4E",
" +	c #9F9F9F",
".+	c #F1F1F1",
"++	c #797979",
"@+	c #5F5F5F",
"#+	c #696A6A",
"$+	c #666666",
"%+	c #696968",
"&+	c #585858",
"*+	c #545454",
"=+	c #656666",
"-+	c #616161",
";+	c #A0A0A0",
">+	c #BCBCBC",
",+	c #D4D4D4",
"'+	c #898989",
")+	c #C6C6C6",
"!+	c #D6D6D6",
"~+	c #FAFAFA",
"{+	c #747474",
"]+	c #808080",
"^+	c #4B4B4B",
"/+	c #515151",
"(+	c #969696",
"_+	c #565656",
":+	c #8B8B8B",
"<+	c #A6A6A6",
"[+	c #494949",
"}+	c #E6E6E6",
"|+	c #B1B1B1",
"1+	c #B7B7B7",
"2+	c #CDCDCD",
"3+	c #E0E0E0",
"4+	c #DFDFDF",
"5+	c #EBEBEB",
"6+	c #A2A2A2",
"7+	c #CFCFCF",
"8+	c #5E5E5E",
"9+	c #E9E9E9",
"0+	c #C9C9C9",
"a+	c #CBCBCB",
"b+	c #0E0E0E",
"c+	c #D9D9D9",
"d+	c #949494",
"e+	c #606060",
"f+	c #C8C8C8",
"g+	c #434343",
"h+	c #BEBEBE",
"i+	c #8C8C8C",
"j+	c #F2F2F2",
"k+	c #6C6C6C",
"l+	c #E4E4E4",
"                                                        . +     ",
"                                                      @ # $ $   ",
"                                                    % $ & * $   ",
"                                                  = - ; > , '   ",
"                                                ) $ ! ~ { ]     ",
"                                              ^ / ( _ : $       ",
"  $ $ $ $ $ $ $ $ $ $ $ $ $ $ $ $ $ $ $     < $ [ } | $         ",
"$ $ $ $ $ $ $ + $ 1 @ $ $ $ $ $ $ $ $ $   2 $ 3 4 5 $           ",
"$ $         6 7 . 8 9                   0 $ a b c $             ",
"$ $     d e f g g g h i j               $ k b l $ m             ",
"$ $     n o g g p g g g q             r s t u / r               ",
"$ $     v w o x y z A o B % $ $     ] C D E $ m                 ",
"$ $   F A G H $ $ $ I g J K $     2 $ L M N O                   ",
"$ $     P g Q $     R g S       T $ U V s W     $               ",
"$ $ n X Y g g Z `  .o g ..+.  @.$ #.$.%.$     1 r               ",
"$ $ &.e *.=.p g -.o g ;.>.@.,.$ c '.).$ !.i i ~.{.{.].^.&.      ",
"/.(.o g g _.:.<.g [.:.*.  }.$ |.1.2.$ . $ $ $ $ $ $ 3.o 4.j     ",
"5.G 6.7.o 8.9.0.a.b.c.d.  $ e.f.g.$ 2 $ $ $ $ $ $ $ h.J i.j.    ",
"k.g h.l.m.n.d   o.      p.q.r.s., j $ $ $ $ $ $ $ $ h.t.u.v.    ",
"w.u.g o (.x.y.y.z.m     $ A.B.$ j.m $ $ $ $ $ $ $ $ w.C.D.j     ",
"$ E.7 F.G.Y g g p Q h.c.H.I.$ x.p.$ $ $ $ $ $ @ J.v.K.i.L.M.    ",
"$ N.O.-.O.m.p o P.g Y $ $ $ Q.g d.$ $ $ $ ' m c.R.S.f g -.T.    ",
"$ U...g g i.6.V.P.G r $ p.W.g m.l.= X.+.Y.Z.o.F M.`. +g m.q     ",
"$ *.g g .+c.    b.Z $ ++`.  K @+ .0 0 !.#+$+%+&+*+=+$+-+7.      ",
"$ ;+g g h         >+>+g F.                  ,+0.$               ",
"$ '+g g )+$ $ $ $ !+o ~+{+P `.$+x W.>.]+Z ^+'+n z.O.2 /+(+_+    ",
"$ R.g g p :+$ r <+p p G 0.!+L.[+}+..|+w t.1+.+*.2+3+x 4+_.(.    ",
"$ $ h g g g L.5+g g g 6+$ 7+n.d ;+g 8+J 9+D.A h.0+=.F.4.a+&+    ",
"$ $ 9.4+g g g g g g u.b+d c+_.d+e+f+$ g+a+Y 4+*.h+f ++i+4.R     ",
"$ $   X.{+u.a.j+a+k+            ++P 7.4+l+0   O 1               ",
"$ $ $ $ $ $ $ $ $ $ $ $ $ $ $ $ $ $ $ $ $ $ $ $ $               ",
"  $ $ $ $ $ $ $ $ $ $ $ $ $ $ $ $ $ $ $ $ $ $ $                 "};
